<mxfile host="app.diagrams.net" agent="Mozilla/5.0 (X11; Ubuntu; Linux x86_64; rv:135.0) Gecko/20100101 Firefox/135.0" version="26.0.14">
  <diagram name="Seite-1" id="xeU27EbtqhHBBnQHDd9D">
    <mxGraphModel dx="548" dy="318" grid="1" gridSize="10" guides="1" tooltips="1" connect="1" arrows="1" fold="1" page="1" pageScale="1" pageWidth="1169" pageHeight="827" math="0" shadow="0">
      <root>
        <mxCell id="0" />
        <mxCell id="1" parent="0" />
        <mxCell id="8vbVWA7YMWwMjks8ZIsW-3" value="" style="rounded=0;whiteSpace=wrap;html=1;fillColor=#f5f5f5;strokeColor=#666666;fontColor=#333333;" vertex="1" parent="1">
          <mxGeometry x="500" y="270" width="90" height="230" as="geometry" />
        </mxCell>
        <mxCell id="8vbVWA7YMWwMjks8ZIsW-4" value="0x00000000" style="text;html=1;align=center;verticalAlign=middle;whiteSpace=wrap;rounded=0;fontSize=8;" vertex="1" parent="1">
          <mxGeometry x="450" y="270" width="50" height="10" as="geometry" />
        </mxCell>
        <mxCell id="8vbVWA7YMWwMjks8ZIsW-7" value="0xFFFFFFFF" style="text;html=1;align=center;verticalAlign=middle;whiteSpace=wrap;rounded=0;fontSize=8;" vertex="1" parent="1">
          <mxGeometry x="450" y="490" width="50" height="10" as="geometry" />
        </mxCell>
        <mxCell id="8vbVWA7YMWwMjks8ZIsW-9" value="" style="rounded=0;whiteSpace=wrap;html=1;fillColor=#ffe6cc;strokeColor=#d79b00;" vertex="1" parent="1">
          <mxGeometry x="500" y="330" width="90" height="144" as="geometry" />
        </mxCell>
        <mxCell id="8vbVWA7YMWwMjks8ZIsW-10" value="heap end" style="text;html=1;align=center;verticalAlign=middle;whiteSpace=wrap;rounded=0;fontSize=8;" vertex="1" parent="1">
          <mxGeometry x="450" y="464" width="50" height="10" as="geometry" />
        </mxCell>
        <mxCell id="8vbVWA7YMWwMjks8ZIsW-11" value="&lt;div&gt;heap start&lt;/div&gt;" style="text;html=1;align=center;verticalAlign=middle;whiteSpace=wrap;rounded=0;fontSize=8;" vertex="1" parent="1">
          <mxGeometry x="450" y="330" width="50" height="10" as="geometry" />
        </mxCell>
        <mxCell id="8vbVWA7YMWwMjks8ZIsW-12" value="body" style="rounded=0;whiteSpace=wrap;html=1;fillColor=#b0e3e6;strokeColor=#0e8088;fontSize=7;" vertex="1" parent="1">
          <mxGeometry x="505" y="430" width="80" height="44" as="geometry" />
        </mxCell>
        <mxCell id="8vbVWA7YMWwMjks8ZIsW-13" value="body" style="rounded=0;whiteSpace=wrap;html=1;fillColor=#b1ddf0;strokeColor=#10739e;fontSize=7;" vertex="1" parent="1">
          <mxGeometry x="505" y="380" width="80" height="44" as="geometry" />
        </mxCell>
        <mxCell id="8vbVWA7YMWwMjks8ZIsW-16" value="header" style="rounded=0;whiteSpace=wrap;html=1;fillColor=#b0e3e6;strokeColor=#0e8088;fontSize=7;" vertex="1" parent="1">
          <mxGeometry x="505" y="430" width="80" height="10" as="geometry" />
        </mxCell>
        <mxCell id="8vbVWA7YMWwMjks8ZIsW-17" value="header" style="rounded=0;whiteSpace=wrap;html=1;fillColor=#b1ddf0;strokeColor=#10739e;fontSize=7;align=center;verticalAlign=middle;" vertex="1" parent="1">
          <mxGeometry x="505" y="370" width="80" height="10" as="geometry" />
        </mxCell>
        <mxCell id="8vbVWA7YMWwMjks8ZIsW-19" value="" style="endArrow=classic;html=1;rounded=0;" edge="1" parent="1">
          <mxGeometry width="50" height="50" relative="1" as="geometry">
            <mxPoint x="610" y="464" as="sourcePoint" />
            <mxPoint x="610" y="364" as="targetPoint" />
          </mxGeometry>
        </mxCell>
        <mxCell id="8vbVWA7YMWwMjks8ZIsW-20" value="&lt;div&gt;allocation&lt;/div&gt;&lt;div&gt;direction&lt;/div&gt;" style="text;html=1;align=center;verticalAlign=middle;whiteSpace=wrap;rounded=0;fontSize=8;" vertex="1" parent="1">
          <mxGeometry x="620" y="404" width="60" height="20" as="geometry" />
        </mxCell>
        <mxCell id="8vbVWA7YMWwMjks8ZIsW-21" value="≈" style="text;html=1;align=center;verticalAlign=middle;whiteSpace=wrap;rounded=0;" vertex="1" parent="1">
          <mxGeometry x="495" y="477" width="10" height="10" as="geometry" />
        </mxCell>
        <mxCell id="8vbVWA7YMWwMjks8ZIsW-22" value="≈" style="text;html=1;align=center;verticalAlign=middle;whiteSpace=wrap;rounded=0;" vertex="1" parent="1">
          <mxGeometry x="585" y="477" width="10" height="10" as="geometry" />
        </mxCell>
        <mxCell id="8vbVWA7YMWwMjks8ZIsW-24" value="≈" style="text;html=1;align=center;verticalAlign=middle;whiteSpace=wrap;rounded=0;" vertex="1" parent="1">
          <mxGeometry x="495" y="279" width="10" height="10" as="geometry" />
        </mxCell>
        <mxCell id="8vbVWA7YMWwMjks8ZIsW-25" value="≈" style="text;html=1;align=center;verticalAlign=middle;whiteSpace=wrap;rounded=0;" vertex="1" parent="1">
          <mxGeometry x="585" y="279" width="10" height="10" as="geometry" />
        </mxCell>
        <mxCell id="8vbVWA7YMWwMjks8ZIsW-27" value="" style="verticalLabelPosition=bottom;verticalAlign=top;html=1;shape=mxgraph.basic.4_point_star_2;dx=0.8;strokeWidth=1;" vertex="1" parent="1">
          <mxGeometry x="581" y="368" width="5" height="5" as="geometry" />
        </mxCell>
      </root>
    </mxGraphModel>
  </diagram>
</mxfile>
